<?xml version="1.0" standalone="no"?>
<!DOCTYPE svg PUBLIC "-//W3C//DTD SVG 20010904//EN"
 "http://www.w3.org/TR/2001/REC-SVG-20010904/DTD/svg10.dtd">
<svg version="1.0" xmlns="http://www.w3.org/2000/svg"
 width="889.000000pt" height="220.000000pt" viewBox="0 0 889.000000 220.000000"
 preserveAspectRatio="xMidYMid meet">

<g transform="translate(0.000000,220.000000) scale(0.100000,-0.100000)"
fill="#000000" stroke="none">
<path d="M7003 2107 c-8 -16 -39 -36 -99 -63 -49 -21 -118 -58 -154 -81 -36
-24 -68 -43 -72 -43 -4 0 -19 -19 -34 -41 -18 -29 -23 -44 -15 -52 6 -6 75
-14 153 -18 79 -4 164 -10 190 -14 72 -11 94 -2 123 55 28 56 57 86 90 94 12
3 42 17 66 31 l44 25 -85 -6 c-102 -8 -120 3 -148 81 -20 55 -43 68 -59 32z"/>
<path d="M4958 1983 c17 -2 47 -2 65 0 17 2 3 4 -33 4 -36 0 -50 -2 -32 -4z"/>
<path d="M5065 1971 c3 -5 20 -12 38 -16 54 -11 177 -77 224 -120 28 -26 50
-58 62 -90 17 -49 18 -50 56 -48 59 4 62 17 13 51 -24 17 -51 38 -59 48 -8 10
-46 43 -86 75 -55 43 -91 63 -152 83 -86 28 -105 31 -96 17z"/>
<path d="M7648 1910 c18 -11 42 -20 55 -19 17 0 13 5 -18 19 -54 25 -78 25
-37 0z"/>
<path d="M7315 1913 c-11 -3 -22 -8 -25 -12 -3 -4 -20 -17 -38 -30 -18 -12
-41 -41 -52 -64 -18 -36 -19 -46 -8 -72 17 -41 35 -53 95 -61 58 -7 104 10
183 67 38 27 41 33 37 65 -6 41 -31 68 -90 94 -42 19 -64 22 -102 13z"/>
<path d="M8175 1813 c4 -21 9 -41 11 -45 6 -9 72 -31 82 -26 4 2 -17 27 -47
56 l-53 53 7 -38z"/>
<path d="M7851 1831 c-8 -5 -46 -40 -85 -78 -69 -67 -84 -75 -218 -125 -15 -6
-38 -20 -51 -32 l-24 -22 51 -27 c54 -28 136 -57 162 -57 9 0 55 -13 103 -29
172 -58 379 -82 522 -62 136 19 183 36 213 76 26 33 26 35 8 53 -41 41 -67 52
-119 52 -50 0 -57 -3 -99 -45 -48 -49 -65 -53 -122 -29 -20 8 -74 22 -119 30
-45 7 -94 19 -108 26 -24 11 -26 16 -21 50 7 40 25 78 38 78 17 0 7 23 -17 42
-14 11 -34 40 -45 64 -20 44 -39 54 -69 35z"/>
<path d="M6855 1654 c-11 -2 -46 -6 -77 -9 -51 -6 -57 -9 -67 -36 -8 -23 -7
-31 4 -35 16 -6 55 12 55 26 0 12 83 13 96 1 5 -5 32 -11 61 -13 47 -5 55 -2
79 23 26 27 26 27 6 38 -19 10 -107 13 -157 5z"/>
<path d="M5570 1585 c-10 -12 -7 -17 15 -25 35 -13 38 -10 15 17 -15 20 -20
21 -30 8z"/>
<path d="M3949 1526 c-2 -2 -674 -6 -1494 -10 -820 -4 -1515 -11 -1545 -16
-30 -5 -100 -14 -155 -21 -101 -11 -250 -57 -192 -58 15 -1 49 9 75 21 45 22
58 23 256 20 116 -1 214 -6 219 -11 8 -8 -71 -20 -133 -19 -14 0 -86 -2 -160
-6 -74 -3 -138 -6 -143 -6 -4 0 -12 -11 -17 -24 -7 -19 -19 -27 -47 -31 -74
-12 -85 -16 -106 -39 -12 -12 -37 -28 -56 -34 -41 -14 -43 -16 -149 -123 -58
-58 -85 -94 -92 -120 -6 -21 -15 -41 -20 -44 -5 -3 -8 -88 -6 -203 3 -185 5
-200 28 -252 39 -86 168 -215 282 -282 61 -35 181 -82 231 -89 70 -10 93 -17
115 -34 8 -7 35 -16 60 -20 25 -4 725 -9 1557 -10 831 -2 1516 -6 1521 -9 17
-10 1752 -5 2932 9 365 4 398 6 435 24 22 10 67 26 100 35 32 8 71 24 85 36
14 11 49 35 79 52 l55 32 -30 13 c-20 9 -55 11 -117 7 -94 -7 -210 10 -228 33
-15 18 17 29 114 38 56 5 99 16 151 40 97 44 185 101 196 128 6 12 15 30 22
39 10 14 10 20 1 29 -10 10 -24 7 -65 -13 -29 -14 -66 -29 -83 -32 -16 -4 -37
-14 -45 -21 -61 -54 -255 -43 -306 18 -29 34 -29 34 -4 74 30 49 76 54 152 14
68 -35 84 -37 131 -17 47 19 122 133 144 218 15 58 16 75 4 130 -17 83 -84
221 -136 274 -11 12 -37 40 -59 63 -21 23 -44 41 -51 41 -7 0 -18 7 -25 15
-18 22 -209 112 -279 131 -43 12 -66 14 -87 6 l-29 -10 27 -10 c34 -14 151
-133 226 -231 55 -72 57 -76 57 -137 0 -61 -1 -64 -45 -109 -60 -62 -109 -85
-183 -85 -44 0 -69 6 -96 22 -45 28 -51 36 -49 71 3 40 41 57 123 57 72 0 105
12 105 37 0 8 -30 44 -66 80 -55 54 -89 76 -210 136 -155 76 -218 93 -441 119
-132 15 -283 0 -345 -34 -78 -43 -64 -53 86 -63 48 -3 96 -10 106 -15 10 -6
27 -10 38 -10 40 0 167 -70 205 -112 21 -24 54 -61 73 -83 71 -79 94 -117 94
-154 0 -59 -8 -64 -87 -56 l-69 7 -22 -71 c-20 -61 -28 -74 -71 -104 -71 -51
-185 -108 -218 -109 -15 0 -52 9 -81 21 -45 18 -73 21 -200 20 -160 0 -194 7
-272 57 -65 41 -152 145 -165 196 -6 23 -10 24 -111 26 -57 2 -139 10 -182 18
-42 8 -151 26 -242 39 -91 13 -209 32 -263 41 -80 13 -103 14 -127 4 -38 -16
-41 -30 -38 -170 l3 -115 28 -9 c34 -12 73 13 102 68 27 50 47 60 112 53 54
-6 87 -21 81 -39 -2 -5 -30 -19 -63 -30 -33 -11 -63 -23 -67 -27 -14 -12 31
-86 74 -123 24 -20 57 -48 73 -62 l30 -26 -24 -20 c-18 -16 -38 -20 -90 -20
-72 0 -82 5 -123 60 -46 61 -68 80 -96 80 -42 0 -51 -14 -38 -61 14 -55 -4
-72 -88 -77 -55 -4 -67 -1 -85 17 -17 17 -20 27 -14 49 5 15 8 104 7 199 -1
149 -3 176 -19 200 -10 15 -21 41 -25 58 -5 29 -9 30 -70 38 -36 4 -110 14
-165 22 -100 13 -411 15 -432 2 -21 -13 -635 -11 -696 2 -48 11 -74 10 -155
-3 -113 -18 -168 -20 -392 -11 -93 4 -203 3 -252 -3 -66 -7 -109 -6 -180 5
-93 14 -183 18 -418 16 -69 -1 -172 -1 -230 0 -58 1 -163 -6 -235 -16 -71 -10
-180 -24 -240 -32 -61 -8 -138 -22 -170 -31 -33 -9 -91 -25 -129 -35 -38 -10
-85 -28 -104 -40 -73 -42 -114 -50 -171 -34 -28 9 -51 21 -51 27 0 13 25 42
139 155 46 45 88 83 94 83 5 0 24 11 41 23 17 13 55 32 83 41 29 10 56 23 60
29 27 42 3 41 1573 45 961 2 1684 -1 2025 -8 935 -21 983 -21 1043 -3 28 9 52
20 52 24 0 3 -19 23 -41 43 -40 34 -45 36 -113 36 -39 0 -100 -5 -136 -11 -36
-6 -81 -11 -100 -11 -79 0 -491 23 -563 32 -43 5 -111 7 -151 3 -90 -7 -165 3
-173 24 -3 8 0 19 8 24 9 5 -20 9 -77 9 -50 0 -93 -2 -95 -4z m-1209 -76 c10
-7 -22 -9 -100 -9 -73 1 -106 4 -90 9 36 11 172 11 190 0z m-1157 -7 c-13 -2
-35 -2 -50 0 -16 2 -5 4 22 4 28 0 40 -2 28 -4z m620 0 c-7 -2 -19 -2 -25 0
-7 3 -2 5 12 5 14 0 19 -2 13 -5z m1060 0 c-13 -2 -33 -2 -45 0 -13 2 -3 4 22
4 25 0 35 -2 23 -4z m-1558 -358 c28 -1 87 -14 133 -29 46 -14 89 -26 96 -26
18 0 41 -29 54 -67 10 -30 8 -35 -18 -62 -17 -16 -35 -31 -41 -33 -6 -2 -11
-18 -12 -37 -2 -30 2 -34 39 -49 56 -23 71 -37 77 -75 6 -42 -15 -91 -48 -113
-35 -23 -110 -34 -164 -24 -66 12 -73 26 -28 62 61 49 48 110 -32 147 -54 26
-58 32 -38 53 22 24 55 75 58 89 2 8 -3 35 -10 61 -15 55 -29 62 -111 60 -61
-1 -73 -11 -92 -75 -10 -32 -9 -43 5 -67 21 -34 21 -96 2 -130 -20 -34 -19
-92 2 -136 17 -36 17 -36 -6 -55 -18 -15 -40 -19 -101 -19 -125 0 -158 22
-125 83 15 28 17 54 13 182 -4 154 -13 192 -53 225 -16 13 -16 15 2 21 10 4
45 8 78 9 33 1 78 5 100 10 22 5 69 6 105 3 36 -3 88 -6 115 -8z m2359 -28
c27 -15 56 -27 64 -27 22 0 93 -67 126 -119 37 -59 41 -152 7 -199 -11 -17
-21 -35 -21 -41 0 -6 -12 -18 -27 -28 -16 -10 -34 -26 -41 -35 -16 -22 -95
-46 -133 -40 -39 6 -46 34 -17 72 21 29 23 42 23 163 0 119 -2 136 -22 168
-12 19 -31 43 -42 53 -26 24 -95 31 -148 17 -36 -10 -46 -19 -75 -69 -32 -55
-33 -61 -33 -168 0 -105 2 -113 28 -150 47 -69 31 -100 -46 -85 -71 13 -154
75 -188 142 -23 46 -25 132 -4 181 19 46 116 135 157 143 18 4 42 15 53 25 25
23 44 25 180 24 99 -1 115 -3 159 -27z m-1121 -16 c21 -8 28 -22 43 -86 16
-66 16 -80 4 -113 -7 -20 -14 -68 -15 -105 -2 -61 0 -69 23 -87 13 -11 40 -20
58 -20 18 0 35 -4 38 -8 2 -4 -19 -26 -47 -47 -44 -33 -59 -39 -98 -38 -52 1
-123 33 -139 62 -5 11 -10 64 -10 118 0 65 -5 107 -14 125 -21 39 -4 93 35
117 17 11 42 35 55 55 27 39 31 41 67 27z m-602 -141 c23 -13 25 -47 4 -77
-13 -19 -12 -24 10 -57 13 -20 21 -36 17 -36 -4 0 -15 -12 -25 -26 -18 -24
-18 -26 -2 -51 9 -14 18 -43 20 -65 l3 -40 -36 5 c-80 12 -102 20 -135 51 -42
39 -62 100 -52 165 5 36 16 53 52 87 54 51 102 66 144 44z m288 -44 c35 -35
42 -49 37 -67 -12 -48 -21 -53 -98 -53 l-73 -1 -6 53 c-4 29 -12 58 -18 65 -8
10 -5 19 11 36 33 36 91 23 147 -33z m-9 -246 c0 -5 -4 -10 -9 -10 -5 0 -16
-3 -25 -6 -11 -4 -16 -1 -16 10 0 10 9 16 25 16 14 0 25 -4 25 -10z"/>
<path d="M410 1370 c-19 -11 -31 -19 -27 -20 12 0 77 28 77 34 0 10 -14 6 -50
-14z"/>
<path d="M5493 1375 c-35 -15 -53 -52 -32 -66 8 -5 34 -8 59 -7 42 1 111 -16
136 -34 21 -15 -10 -78 -73 -146 -56 -61 -60 -68 -46 -84 11 -12 24 -15 47
-11 34 6 86 33 86 45 0 13 74 28 143 28 61 0 67 -2 67 -21 0 -12 -22 -48 -50
-80 -45 -55 -48 -62 -38 -85 22 -47 75 -65 183 -59 125 6 164 17 208 61 86 87
97 168 30 236 -45 46 -194 120 -278 137 -33 7 -89 21 -124 32 -35 10 -77 19
-95 19 -19 0 -42 10 -60 25 -23 20 -40 25 -80 25 -28 -1 -65 -7 -83 -15z"/>
<path d="M255 1284 c-114 -74 -241 -210 -157 -169 15 8 55 46 90 84 35 39 83
83 108 97 24 14 44 28 44 30 0 10 -20 0 -85 -42z"/>
<path d="M6447 1203 c-14 -13 -6 -22 37 -36 43 -15 44 -14 50 6 3 12 0 25 -7
29 -15 9 -71 10 -80 1z"/>
<path d="M7810 1186 c0 -9 5 -16 10 -16 6 0 10 4 10 9 0 6 -4 13 -10 16 -5 3
-10 -1 -10 -9z"/>
<path d="M7856 1144 c-14 -14 -14 -18 7 -46 12 -17 38 -48 58 -68 103 -107
142 -60 42 49 -71 77 -86 86 -107 65z"/>
<path d="M135 430 c10 -11 20 -18 23 -15 7 6 -18 35 -31 35 -5 0 -2 -9 8 -20z"/>
<path d="M7910 443 c-43 -14 -83 -37 -105 -58 -13 -14 -34 -25 -47 -26 -60 -2
-73 -5 -75 -14 -2 -6 17 -9 45 -7 37 3 51 -1 65 -16 15 -17 22 -18 60 -8 52
14 117 75 117 111 0 19 -5 25 -22 24 -13 0 -30 -3 -38 -6z"/>
</g>
</svg>
